<?xml version="1.0" encoding="UTF-8"?>
<!DOCTYPE svg PUBLIC "-//W3C//DTD SVG 1.1//EN" "http://www.w3.org/Graphics/SVG/1.1/DTD/svg11.dtd">
<!-- Creator: CorelDRAW 2020 (64-Bit) -->
<svg xmlns="http://www.w3.org/2000/svg" xml:space="preserve" width="7880px" height="2143px" version="1.1" style="shape-rendering:geometricPrecision; text-rendering:geometricPrecision; image-rendering:optimizeQuality; fill-rule:evenodd; clip-rule:evenodd"
viewBox="0 0 7986.49 2171.9"
 xmlns:xlink="http://www.w3.org/1999/xlink"
 xmlns:xodm="http://www.corel.com/coreldraw/odm/2003">
 <defs>
  <style type="text/css">
   <![CDATA[
    .fil0 {fill:#19B248}
   ]]>
  </style>
 </defs>
 <g id="Слой_x0020_1">
  <metadata id="CorelCorpID_0Corel-Layer"/>
  <path class="fil0" d="M1683.83 2171.9l745.63 0c191.02,-63.4 815.16,91.55 1283.82,-848.33 115,-230.63 254.72,-524.5 238.77,-818.92 -28.38,-523.72 -408.33,-440.55 -574.9,-499.24l-925.8 0 -476.39 1344.08c330.29,-3.79 527.39,72.45 647.61,-209.53 82.65,-193.87 137.79,-418.42 215.53,-610.31 364.6,0 585.6,-38.43 441.42,417.31 -392.5,1240.66 -1284.6,364.98 -1478.72,872.43 -34.22,89.43 -101.68,261.12 -116.97,352.51z"/>
  <path class="fil0" d="M5411.67 2171.9l551.53 0c68.1,-163.22 122.36,-337.46 184.1,-507.39 53.07,-146.09 28.29,-145.17 125.93,-224.66 49.48,-40.29 144.35,-127.81 190.57,-151.98 57.88,146.37 105.96,318.79 155.34,472.67 69.92,217.86 74.86,300.97 246.1,411.36l486.15 0 -436.77 -1202.42 387.32 -352.14c55.58,-58.56 89.1,-70.17 140.3,-119.23l398.23 -360.33c26.91,-23.09 44.79,-33.28 72.35,-57.55l73.67 -66.76 0 -8.06 -694.67 0 -882.4 917.46 311.93 -917.46 -556.79 0c-118.02,358.75 -250.99,724.46 -379.72,1076.67 -64.49,176.45 -127.74,354.2 -188.83,533.84 -43.39,127.62 -174.83,442.68 -184.34,555.98z"/>
  <path class="fil0" d="M682.59 2171.9l758.41 0c167.61,-483.52 193.24,-527.96 -454.66,-527.06 -200.76,0.28 -316.74,-37.52 -342.46,-240.38 -20.59,-162.33 38.48,-349.39 100.36,-476.45 211.92,-435.14 448.61,-395.32 779.81,-395.31 202.58,0 396.12,37.8 501.72,-100.62 49.61,-65.03 148.27,-340.76 161.61,-426.67 -416.53,0 -992.92,-47.99 -1371.8,141.96 -186.3,93.4 -263.39,170.13 -377.24,291.1 -636.58,676.33 -600.43,1366.39 244.25,1733.43z"/>
  <path class="fil0" d="M5864.85 5.41l-1319.74 0c-184.97,72.81 -239.39,-6.62 -362.7,527.72 366.48,-2.6 734.03,-0.99 1100.6,-0.39 174.85,0.27 378.34,11.55 448.49,-117.15 37.18,-68.22 120.21,-333.75 133.35,-410.18z"/>
  <path class="fil0" d="M3598.08 2171.9l1312.46 0c194.41,-78.82 226.06,26 365.96,-527.72 -367.83,2.44 -736.62,1.02 -1104.52,0.39 -165.03,-0.28 -363.32,-11.16 -440.46,106.01 -33.36,50.67 -130.1,357.71 -133.44,421.32z"/>
  <path class="fil0" d="M3894.27 1347.36c360.63,10.19 730.55,-0.46 1092.46,1.38 188.48,0.96 364.26,22.59 452.99,-113.98 38.8,-59.71 134.97,-343.46 130.93,-404.96 -359.19,-7.89 -724.05,-1.52 -1083.89,-1.78 -416.21,-0.3 -457.25,-21.35 -592.49,519.34z"/>
 </g>
</svg>
