<svg id="svg" version="1.1" xmlns="http://www.w3.org/2000/svg" xmlns:xlink="http://www.w3.org/1999/xlink" width="400" height="400" viewBox="0, 0, 400,400"><g id="svgg"><path id="path0" d="M7.813 7.813 C 5.344 10.281,5.344 389.719,7.813 392.188 C 10.281 394.656,389.719 394.656,392.187 392.188 C 394.656 389.719,394.656 10.281,392.187 7.813 C 389.719 5.344,10.281 5.344,7.813 7.813 M100.000 106.250 L 100.000 193.750 59.375 193.750 L 18.750 193.750 18.750 106.250 L 18.750 18.750 59.375 18.750 L 100.000 18.750 100.000 106.250 M193.750 106.250 L 193.750 193.750 153.125 193.750 L 112.500 193.750 112.500 106.250 L 112.500 18.750 153.125 18.750 L 193.750 18.750 193.750 106.250 M381.250 59.375 L 381.250 100.000 293.750 100.000 L 206.250 100.000 206.250 59.375 L 206.250 18.750 293.750 18.750 L 381.250 18.750 381.250 59.375 M32.813 32.813 C 31.771 33.854,31.250 35.417,31.250 37.500 C 31.250 39.583,31.771 41.146,32.813 42.188 C 33.854 43.229,35.417 43.750,37.500 43.750 C 39.583 43.750,41.146 43.229,42.188 42.188 C 43.229 41.146,43.750 39.583,43.750 37.500 C 43.750 35.417,43.229 33.854,42.188 32.813 C 41.146 31.771,39.583 31.250,37.500 31.250 C 35.417 31.250,33.854 31.771,32.813 32.813 M76.563 32.813 C 75.521 33.854,75.000 35.417,75.000 37.500 C 75.000 39.583,75.521 41.146,76.563 42.188 C 80.577 46.202,87.500 43.234,87.500 37.500 C 87.500 35.417,86.979 33.854,85.938 32.813 C 84.896 31.771,83.333 31.250,81.250 31.250 C 79.167 31.250,77.604 31.771,76.563 32.813 M126.563 32.813 C 122.548 36.827,125.516 43.750,131.250 43.750 C 135.417 43.750,137.500 41.667,137.500 37.500 C 137.500 33.333,135.417 31.250,131.250 31.250 C 129.167 31.250,127.604 31.771,126.563 32.813 M170.313 32.813 C 166.298 36.827,169.266 43.750,175.000 43.750 C 179.167 43.750,181.250 41.667,181.250 37.500 C 181.250 33.333,179.167 31.250,175.000 31.250 C 172.917 31.250,171.354 31.771,170.313 32.813 M220.313 32.813 C 219.271 33.854,218.750 35.417,218.750 37.500 C 218.750 43.898,218.008 43.750,250.000 43.750 C 281.992 43.750,281.250 43.898,281.250 37.500 C 281.250 31.102,281.992 31.250,250.000 31.250 C 222.917 31.250,221.817 31.308,220.313 32.813 M357.813 32.813 C 353.798 36.827,356.766 43.750,362.500 43.750 C 366.667 43.750,368.750 41.667,368.750 37.500 C 368.750 33.333,366.667 31.250,362.500 31.250 C 360.417 31.250,358.854 31.771,357.813 32.813 M357.813 76.563 C 353.798 80.577,356.766 87.500,362.500 87.500 C 366.667 87.500,368.750 85.417,368.750 81.250 C 368.750 77.083,366.667 75.000,362.500 75.000 C 360.417 75.000,358.854 75.521,357.813 76.563 M170.313 82.813 C 168.790 84.335,168.750 85.417,168.750 125.000 C 168.750 171.111,168.413 168.750,175.000 168.750 C 181.587 168.750,181.250 171.111,181.250 125.000 C 181.250 78.889,181.587 81.250,175.000 81.250 C 172.917 81.250,171.354 81.771,170.313 82.813 M381.250 153.125 L 381.250 193.750 293.750 193.750 L 206.250 193.750 206.250 153.125 L 206.250 112.500 293.750 112.500 L 381.250 112.500 381.250 153.125 M357.813 126.563 C 353.798 130.577,356.766 137.500,362.500 137.500 C 366.667 137.500,368.750 135.417,368.750 131.250 C 368.750 129.167,368.229 127.604,367.188 126.563 C 366.146 125.521,364.583 125.000,362.500 125.000 C 360.417 125.000,358.854 125.521,357.813 126.563 M357.813 170.313 C 353.798 174.327,356.766 181.250,362.500 181.250 C 366.667 181.250,368.750 179.167,368.750 175.000 C 368.750 172.917,368.229 171.354,367.188 170.313 C 366.146 169.271,364.583 168.750,362.500 168.750 C 360.417 168.750,358.854 169.271,357.813 170.313 M193.750 246.875 L 193.750 287.500 106.250 287.500 L 18.750 287.500 18.750 246.875 L 18.750 206.250 106.250 206.250 L 193.750 206.250 193.750 246.875 M287.500 293.750 L 287.500 381.250 246.875 381.250 L 206.250 381.250 206.250 293.750 L 206.250 206.250 246.875 206.250 L 287.500 206.250 287.500 293.750 M381.250 293.750 L 381.250 381.250 340.625 381.250 L 300.000 381.250 300.000 293.750 L 300.000 206.250 340.625 206.250 L 381.250 206.250 381.250 293.750 M32.813 220.313 C 28.798 224.327,31.766 231.250,37.500 231.250 C 41.667 231.250,43.750 229.167,43.750 225.000 C 43.750 220.833,41.667 218.750,37.500 218.750 C 35.417 218.750,33.854 219.271,32.813 220.313 M220.313 232.813 C 218.790 234.335,218.750 235.417,218.750 275.000 C 218.750 321.111,218.413 318.750,225.000 318.750 C 231.587 318.750,231.250 321.111,231.250 275.000 C 231.250 228.889,231.587 231.250,225.000 231.250 C 222.917 231.250,221.354 231.771,220.313 232.813 M32.813 264.063 C 28.798 268.077,31.766 275.000,37.500 275.000 C 41.667 275.000,43.750 272.917,43.750 268.750 C 43.750 264.583,41.667 262.500,37.500 262.500 C 35.417 262.500,33.854 263.021,32.813 264.063 M193.750 340.625 L 193.750 381.250 106.250 381.250 L 18.750 381.250 18.750 340.625 L 18.750 300.000 106.250 300.000 L 193.750 300.000 193.750 340.625 M32.813 314.063 C 28.798 318.077,31.766 325.000,37.500 325.000 C 41.667 325.000,43.750 322.917,43.750 318.750 C 43.750 314.583,41.667 312.500,37.500 312.500 C 35.417 312.500,33.854 313.021,32.813 314.063 M32.813 357.813 C 28.798 361.827,31.766 368.750,37.500 368.750 C 41.667 368.750,43.750 366.667,43.750 362.500 C 43.750 358.333,41.667 356.250,37.500 356.250 C 35.417 356.250,33.854 356.771,32.813 357.813 M120.313 357.813 C 119.271 358.854,118.750 360.417,118.750 362.500 C 118.750 368.898,118.008 368.750,150.000 368.750 C 181.992 368.750,181.250 368.898,181.250 362.500 C 181.250 356.102,181.992 356.250,150.000 356.250 C 122.917 356.250,121.817 356.308,120.313 357.813 M220.313 357.813 C 219.271 358.854,218.750 360.417,218.750 362.500 C 218.750 364.583,219.271 366.146,220.313 367.188 C 221.354 368.229,222.917 368.750,225.000 368.750 C 227.083 368.750,228.646 368.229,229.688 367.188 C 230.729 366.146,231.250 364.583,231.250 362.500 C 231.250 360.417,230.729 358.854,229.688 357.813 C 228.646 356.771,227.083 356.250,225.000 356.250 C 222.917 356.250,221.354 356.771,220.313 357.813 M264.063 357.813 C 263.021 358.854,262.500 360.417,262.500 362.500 C 262.500 364.583,263.021 366.146,264.063 367.188 C 265.104 368.229,266.667 368.750,268.750 368.750 C 270.833 368.750,272.396 368.229,273.438 367.188 C 274.479 366.146,275.000 364.583,275.000 362.500 C 275.000 360.417,274.479 358.854,273.438 357.813 C 272.396 356.771,270.833 356.250,268.750 356.250 C 266.667 356.250,265.104 356.771,264.063 357.813 M314.063 357.813 C 313.021 358.854,312.500 360.417,312.500 362.500 C 312.500 364.583,313.021 366.146,314.063 367.188 C 315.104 368.229,316.667 368.750,318.750 368.750 C 320.833 368.750,322.396 368.229,323.438 367.188 C 324.479 366.146,325.000 364.583,325.000 362.500 C 325.000 360.417,324.479 358.854,323.438 357.813 C 322.396 356.771,320.833 356.250,318.750 356.250 C 316.667 356.250,315.104 356.771,314.063 357.813 M357.813 357.813 C 356.771 358.854,356.250 360.417,356.250 362.500 C 356.250 364.583,356.771 366.146,357.813 367.188 C 358.854 368.229,360.417 368.750,362.500 368.750 C 364.583 368.750,366.146 368.229,367.188 367.188 C 368.229 366.146,368.750 364.583,368.750 362.500 C 368.750 360.417,368.229 358.854,367.188 357.813 C 366.146 356.771,364.583 356.250,362.500 356.250 C 360.417 356.250,358.854 356.771,357.813 357.813 " stroke="none" fill="#000000" fill-rule="evenodd"></path></g></svg>