<svg id="svg" version="1.1" xmlns="http://www.w3.org/2000/svg" xmlns:xlink="http://www.w3.org/1999/xlink" width="400" height="400" viewBox="0, 0, 400,400"><g id="svgg"><path id="path0" d="M241.778 103.636 C 226.433 110.264,225.600 131.943,240.399 139.507 C 256.406 147.688,273.548 132.940,268.319 115.486 C 265.186 105.032,252.087 99.183,241.778 103.636 M202.391 135.167 L 183.005 138.593 167.725 147.300 C 150.157 157.311,147.073 160.707,149.333 167.556 C 151.920 175.393,154.178 175.084,174.992 164.047 C 189.618 156.291,202.900 151.937,205.132 154.169 C 205.285 154.322,195.810 173.797,184.074 197.446 L 162.738 240.444 146.036 239.857 C 126.395 239.167,122.399 239.967,117.988 245.469 C 112.914 251.797,115.287 258.474,123.133 259.945 C 125.330 260.358,169.068 263.079,173.922 263.105 C 174.490 263.109,178.668 256.211,183.207 247.778 C 187.746 239.344,192.140 231.306,192.972 229.914 L 194.485 227.384 204.005 241.470 C 211.734 252.906,215.258 259.306,222.742 275.493 C 234.526 300.979,238.742 305.518,247.307 301.939 C 258.612 297.215,251.719 274.399,225.739 230.550 C 219.908 220.708,214.911 212.068,214.635 211.350 C 213.798 209.169,233.898 167.718,235.131 169.083 C 235.696 169.710,241.045 175.922,247.016 182.889 L 257.873 195.556 272.532 195.556 C 289.580 195.556,291.556 194.737,291.556 187.675 C 291.556 181.532,288.116 179.556,277.426 179.556 L 268.766 179.556 247.062 155.556 C 231.680 138.547,224.836 131.583,223.568 131.648 C 222.583 131.699,213.054 133.283,202.391 135.167 M78.667 157.907 C 64.000 164.043,51.860 169.197,51.690 169.361 C 51.420 169.619,71.003 205.863,74.369 211.337 L 75.601 213.340 79.978 211.122 L 84.355 208.904 79.218 200.230 C 76.393 195.459,72.038 188.085,69.540 183.843 L 64.999 176.131 87.166 163.096 C 109.831 149.769,110.104 149.570,108.267 147.733 C 106.675 146.141,107.304 145.925,78.667 157.907 M95.556 165.395 C 84.311 172.757,74.760 179.126,74.332 179.548 C 73.697 180.172,87.591 206.535,95.329 219.388 L 97.102 222.332 99.244 220.320 C 101.909 217.816,102.433 218.994,90.641 200.968 C 85.198 192.648,80.965 185.485,81.234 185.050 C 81.502 184.616,90.511 178.558,101.253 171.588 L 120.784 158.915 118.496 155.457 C 115.752 151.311,119.635 149.629,95.556 165.395 M106.667 173.866 C 96.156 180.939,87.660 187.127,87.788 187.616 C 89.006 192.278,113.125 225.710,114.538 224.696 C 118.796 221.641,148.442 194.286,148.425 193.428 C 148.414 192.887,147.636 191.444,146.696 190.222 C 144.989 188.003,144.990 187.996,147.325 185.556 C 156.403 176.073,144.609 159.651,132.128 164.396 C 130.266 165.104,129.694 164.894,128.494 163.062 C 126.597 160.166,128.213 159.366,106.667 173.866 M143.644 170.133 C 147.232 173.721,147.816 179.343,144.984 183.026 L 143.341 185.163 137.796 176.916 C 131.809 168.011,131.795 167.151,137.644 167.125 C 139.856 167.115,141.399 167.888,143.644 170.133 M295.068 191.336 C 291.479 193.755,289.024 197.728,288.577 201.843 C 288.255 204.806,288.092 204.922,282.568 206.107 C 279.444 206.778,276.807 207.393,276.708 207.474 C 276.608 207.555,277.867 213.807,279.505 221.366 C 281.143 228.926,283.376 239.406,284.466 244.655 C 286.304 253.500,286.587 254.166,288.336 253.750 C 289.373 253.503,303.354 250.543,319.403 247.173 C 335.452 243.803,348.756 240.873,348.968 240.662 C 349.439 240.191,331.795 198.106,330.644 196.955 C 330.140 196.451,326.987 196.741,322.495 197.707 C 318.465 198.573,315.053 198.943,314.914 198.529 C 312.205 190.517,301.852 186.765,295.068 191.336 M308.513 195.487 C 311.632 198.606,311.778 199.812,309.111 200.427 C 292.073 204.352,291.541 204.387,292.157 201.556 C 293.984 193.163,302.886 189.861,308.513 195.487 M268.728 217.198 C 266.685 217.761,264.785 218.455,264.508 218.739 C 264.057 219.201,270.026 265.875,270.611 266.462 C 270.957 266.809,326.332 252.631,326.917 252.046 C 327.964 250.999,323.848 251.710,304.306 255.953 C 293.167 258.371,283.979 260.271,283.888 260.175 C 283.796 260.079,281.585 250.100,278.974 238.000 C 276.363 225.900,273.826 216.039,273.336 216.087 C 272.845 216.135,270.772 216.635,268.728 217.198 " stroke="none" fill="#000000" fill-rule="evenodd"></path></g></svg>