<svg width="60" height="26" viewBox="0 0 60 26" fill="none" xmlns="http://www.w3.org/2000/svg">
<path d="M0.238037 13C0.238037 6.09644 5.83448 0.5 12.738 0.5H47.2619C54.1654 0.5 59.7619 6.09644 59.7619 13C59.7619 19.9036 54.1654 25.5 47.2619 25.5H12.738C5.83448 25.5 0.238037 19.9036 0.238037 13Z" fill="black"/>
<path d="M13.762 5.23589C12.7727 5.23589 11.5435 5.84735 11.0854 6.27756L11.2655 6.68671C11.2655 6.68671 9.87061 6.70532 9.15164 7.16809C8.43268 7.63086 8.10484 7.94564 7.75078 8.6931C7.39623 8.70998 6.06685 9.27423 5.29698 9.8415C5.29698 9.8415 4.64986 12.2912 5.87547 13.3483L5.10181 14.4105C5.29698 15.0793 6.1396 15.7588 6.97701 15.8398C7.3538 16.2965 6.62293 17.2037 6.62293 17.2037C6.93233 18.1857 9.01514 19.265 10.2591 19.265L10.0878 19.8432C10.0878 19.8432 11.4734 20.8521 13.7093 20.7579C15.5994 20.8192 17.1367 20.3678 17.5268 19.8432L17.3293 19.265C19.0557 19.0077 20.3596 18.4449 21.0851 17.2501C21.0851 17.2501 20.5449 16.1143 20.7335 15.8293C21.5709 15.7483 22.3539 14.9235 22.5621 14.5634L21.8025 13.3677C22.4083 12.6873 22.7474 10.892 22.3021 9.8415C21.5322 9.27423 20.2159 8.81294 19.8614 8.79606C19.7207 7.96613 18.8175 7.31726 18.8175 7.31726C17.9623 6.57352 16.4068 6.68671 16.4068 6.68671L16.5333 6.27756C16.1367 5.83549 14.8846 5.23589 13.762 5.23589Z" fill="white"/>
<path d="M11.4551 7.55813C10.4652 7.30602 9.71898 7.65108 9.07331 8.12583C8.42632 8.60156 8.17099 9.21826 8.22776 9.43903C7.69868 9.22241 6.53708 9.89417 5.98413 10.2164C5.98413 10.2164 5.55621 12.3095 6.65007 13.1194C6.59321 13.688 6.19216 14.3705 5.98413 14.4983C6.34472 15.0669 7.10878 15.2225 7.43238 15.078C7.97325 15.8269 7.7119 16.8417 7.41141 17.1653C8.25205 17.9243 10.2578 18.2426 10.8453 18.2901C10.8453 18.2901 10.3281 17.0781 10.0972 16.0794C9.45907 13.3191 9.80254 9.87493 9.80254 9.87493C9.80254 9.87493 8.3119 11.6102 9.14281 15.7936C9.28312 16.5 9.48141 17.2466 9.48141 17.2466C9.34315 17.1781 9.00576 17.2196 8.3854 16.9058C8.65115 16.6196 8.53688 14.9222 7.75394 14.0893C7.75394 14.0893 7.38141 14.2611 7.10794 14.1473C7.29193 14.0343 7.52164 13.3129 7.52164 12.7609C6.63632 12.2318 6.73028 11.2752 6.77407 10.7721C7.20849 10.4901 7.98758 10.0106 8.96788 10.4293C8.94213 10.1918 9.00921 9.55986 9.27818 9.11729C9.27818 9.11729 9.60559 8.5476 10.3451 8.36888C11.0847 8.19017 11.4551 7.55813 11.4551 7.55813Z" fill="#333333"/>
<path d="M16.2088 7.55813C17.1987 7.30602 17.9449 7.65108 18.5906 8.12583C19.2376 8.60156 19.4929 9.21826 19.4361 9.43903C19.9652 9.22241 21.1269 9.89417 21.6798 10.2164C21.6798 10.2164 22.1077 12.3095 21.0138 13.1194C21.0707 13.688 21.4718 14.3705 21.6798 14.4983C21.3192 15.0669 20.5551 15.2225 20.2315 15.078C19.6906 15.8269 19.952 16.8417 20.2525 17.1653C19.4118 17.9243 17.4061 18.2426 16.8186 18.2901C16.8186 18.2901 17.3358 17.0781 17.5667 16.0794C18.2048 13.3191 17.8614 9.87493 17.8614 9.87493C17.8614 9.87493 19.352 11.6102 18.5211 15.7936C18.3808 16.5 18.1825 17.2466 18.1825 17.2466C18.3208 17.1781 18.6581 17.2196 19.2785 16.9058C19.0128 16.6196 19.1271 14.9222 19.91 14.0893C19.91 14.0893 20.2825 14.2611 20.556 14.1473C20.372 14.0343 20.1423 13.3129 20.1423 12.7609C21.0276 12.2318 20.9337 11.2752 20.8899 10.7721C20.4554 10.4901 19.6763 10.0106 18.696 10.4293C18.7218 10.1918 18.6547 9.55986 18.3858 9.11729C18.3858 9.11729 18.0583 8.5476 17.3188 8.36888C16.5792 8.19017 16.2088 7.55813 16.2088 7.55813Z" fill="#333333"/>
<path fill-rule="evenodd" clip-rule="evenodd" d="M13.9128 9.17004C13.2 9.16748 12.2588 9.35722 12.2588 9.35722L11.976 6.54212L13.8787 5.96701L15.6879 6.54212L15.533 9.35722C15.533 9.35722 14.6138 9.17257 13.9128 9.17004ZM13.9128 8.36758C13.5176 8.35718 13.0089 8.42847 13.0089 8.42847L12.8926 7.0947L13.8787 6.82731L14.8576 7.0947V8.42847C14.8576 8.42847 14.3162 8.37819 13.9128 8.36758Z" fill="#333333"/>
<path fill-rule="evenodd" clip-rule="evenodd" d="M13.8221 19.8678C15.4692 19.8486 16.5235 19.3579 16.5235 19.3579L15.8796 17.335C15.8796 17.335 14.4977 17.7355 13.832 17.7361C13.1663 17.7355 11.8063 17.335 11.8063 17.335L11.1405 19.3579C11.1405 19.3579 12.1751 19.8486 13.8221 19.8678ZM13.832 19.1927C14.7698 19.189 15.3492 18.9965 15.6636 18.869L15.4915 18.1757C15.1033 18.3032 14.4299 18.444 13.832 18.449C13.2341 18.444 12.5566 18.339 12.1684 18.2115L12.0185 18.869C12.3329 18.9965 12.8942 19.189 13.832 19.1927Z" fill="white"/>
<path fill-rule="evenodd" clip-rule="evenodd" d="M17.166 10.2432H10.498C10.5497 10.3153 10.7598 10.6652 10.835 10.867C10.9104 11.0696 10.9659 11.2739 10.9685 11.3998C10.9705 11.4995 10.9826 11.8089 10.9985 12.2134L10.9986 12.2174C11.0301 13.0197 11.0763 14.199 11.0894 14.8956C11.0951 15.2029 11.1634 15.6104 11.4099 15.9436C11.6609 16.2827 12.0849 16.529 12.7664 16.529H13.2458C13.2931 16.529 13.3257 16.5412 13.3516 16.5589C13.3791 16.5778 13.4045 16.607 13.43 16.6487C13.4558 16.6908 13.4826 16.7497 13.5076 16.8057C13.5304 16.8567 13.5558 16.9137 13.5858 16.9654C13.5961 16.9791 13.6373 17.0342 13.6758 17.0588C13.7169 17.085 13.7684 17.1005 13.832 17.1005C13.8969 17.1005 13.949 17.0844 13.9904 17.0589C14.0293 17.0349 14.0683 16.9789 14.0793 16.9654C14.1103 16.912 14.1415 16.8531 14.1642 16.8009C14.1887 16.7447 14.2129 16.6898 14.238 16.6476C14.2628 16.6059 14.2874 16.5771 14.3141 16.5585C14.339 16.5411 14.3709 16.529 14.4181 16.529H14.8975C15.5791 16.529 16.0031 16.2827 16.2541 15.9436C16.5006 15.6104 16.5689 15.2029 16.5746 14.8956C16.5876 14.199 16.6339 13.0197 16.6654 12.2175L16.6655 12.2138C16.6813 11.8092 16.6935 11.4995 16.6955 11.3998C16.6981 11.2739 16.7536 11.0696 16.829 10.867C16.9042 10.6652 17.1143 10.3153 17.166 10.2432ZM11.7671 11.1874C11.7591 11.1446 11.7505 11.1029 11.7416 11.065H15.9412C15.9294 11.1068 15.9211 11.1487 15.915 11.1881C15.9001 11.2857 15.8974 11.4425 15.8974 11.4425C15.8647 12.2631 15.7991 13.972 15.7991 14.822C15.7991 15.1727 15.686 15.3995 15.5365 15.5376C15.3851 15.6774 15.1853 15.7368 14.9954 15.7308C14.9701 15.73 14.9194 15.7292 14.8654 15.7283C14.7931 15.7271 14.7147 15.7258 14.6833 15.7243C14.4922 15.7156 14.3066 15.7242 14.1452 15.7685C14.028 15.8007 13.9205 15.8527 13.8335 15.9327C13.6299 15.7317 13.3015 15.6431 12.9654 15.6584C12.934 15.6599 12.8477 15.6611 12.7676 15.6623C12.7058 15.6632 12.6477 15.6641 12.6214 15.6649C12.2643 15.6762 11.9028 15.3805 11.9028 14.822C11.9028 13.8935 11.8425 12.3348 11.8116 11.5349C11.8116 11.5349 11.7892 11.307 11.7671 11.1874Z" fill="#333333"/>
<path d="M11.7322 11.065C11.7411 11.1028 11.7498 11.1446 11.7577 11.1874C11.7799 11.307 11.8022 11.5349 11.8022 11.5349C11.8331 12.3348 11.8934 13.8935 11.8934 14.822C11.8934 15.3805 12.2549 15.6762 12.612 15.6648C12.6383 15.664 12.6964 15.6632 12.7582 15.6623C12.8383 15.6611 12.9247 15.6598 12.956 15.6584C13.2921 15.643 13.6205 15.7316 13.8241 15.9327C13.9111 15.8527 14.0186 15.8007 14.1357 15.7685C14.2972 15.7242 14.4828 15.7155 14.6739 15.7243C14.7053 15.7257 14.7837 15.7271 14.856 15.7283C14.9101 15.7292 14.9607 15.7299 14.986 15.7307C15.176 15.7368 15.3757 15.6774 15.5271 15.5376C15.6766 15.3995 15.7897 15.1727 15.7897 14.822C15.7897 13.972 15.8554 12.2631 15.888 11.4425C15.888 11.4425 15.8907 11.2857 15.9057 11.1881C15.9117 11.1487 15.92 11.1068 15.9318 11.065H11.7322Z" fill="#FFDD2D"/>
<path d="M31.0115 9.10414H26.1336V16.8958H28.5071V14.8005H31.0115C31.6008 14.8005 32.1737 14.7842 32.7303 14.6041C33.8106 14.2604 34.6127 13.2946 34.6127 11.9851C34.6127 10.6755 33.827 9.72615 32.763 9.34966C32.1737 9.13686 31.6172 9.10414 31.0115 9.10414ZM28.5071 12.9672V10.9866H30.6678C31.1261 10.9866 31.388 11.0357 31.6008 11.1175C31.9773 11.2648 32.1574 11.6086 32.1574 11.9687C32.1574 12.3616 31.9446 12.738 31.5353 12.869C31.3389 12.9345 31.1097 12.9672 30.6678 12.9672H28.5071Z" fill="white"/>
<path d="M38.0151 14.0476L39.1445 10.9047H39.3246L40.454 14.0476H38.0151ZM37.4258 15.7663H41.027L41.4853 16.8958H44.1535L40.9615 9.10414H37.4913L34.2993 16.8958H36.9838L37.4258 15.7663Z" fill="white"/>
<path d="M49.9308 9.10414L47.9993 12.6562H47.9174L45.9695 9.10414H43.2032L46.7225 14.8333V16.8958H49.1779V14.6369L52.5171 9.10414H49.9308Z" fill="white"/>
</svg>
