<svg width="92" height="51" viewBox="0 0 92 51" fill="none" xmlns="http://www.w3.org/2000/svg">
<mask id="mask0_467_2213" style="mask-type:luminance" maskUnits="userSpaceOnUse" x="0" y="0" width="92" height="51">
<path d="M91.9001 0H0.100098V51H91.9001V0Z" fill="white"/>
</mask>
<g mask="url(#mask0_467_2213)">
<path d="M91.8998 18.9275V31.6425H87.3666V22.7256H83.001V31.6425H78.4678V18.9275H91.8998Z" fill="black"/>
<path d="M76.3175 26.0098C76.3175 29.7124 73.1997 32.1551 69.0019 32.1551C64.6588 32.1551 61.4927 29.5689 61.4927 23.7073C61.4927 18.678 64.7395 14.5323 69.5468 14.4525C71.6522 14.4525 76.1757 14.3538 76.1757 14.3538L74.1379 18.053C74.1379 18.053 70.5333 18.0594 70.0561 18.0594C67.9829 18.0594 66.0968 19.603 65.8324 21.7141C66.9351 20.6936 68.3989 20.1004 70.1754 20.1004C74.0156 20.1004 76.3175 22.4254 76.3175 26.0098ZM71.665 26.0098C71.665 24.3482 70.585 23.3757 69.0244 23.3757C67.4155 23.3757 66.3387 24.3707 66.3387 26.0321C66.3387 27.5979 67.4187 28.7364 69.0244 28.7364C70.7043 28.7397 71.665 27.5055 71.665 26.0098Z" fill="black"/>
<path d="M57.8978 27.7991C57.8978 27.7991 56.8017 28.4082 55.1669 28.5262C53.284 28.5772 51.6107 27.4322 51.6107 25.3912C51.6107 23.4012 53.0906 22.2596 55.1187 22.2596C56.3631 22.2596 58.0107 23.095 58.0107 23.095C58.0107 23.095 59.2165 20.9552 59.8389 19.89C58.6975 19.0514 57.1724 18.592 55.4024 18.592C50.9336 18.592 47.4707 21.4113 47.4707 25.3689C47.4707 29.3775 50.724 32.1298 55.4024 32.0469C56.7114 31.9991 58.5137 31.5557 59.6131 30.8734L57.8978 27.7991Z" fill="black"/>
<path d="M0.100098 11.1016L6.368 22.1422V28.8744L0.113019 39.8926L0.100098 11.1016Z" fill="#5B57A2"/>
<path d="M24.1523 18.1238L30.0204 14.5776L42.0307 14.5679L24.1523 25.3693V18.1238Z" fill="#D90751"/>
<path d="M24.1208 11.0374L24.1529 25.653L17.8755 21.8484V0L24.1208 11.0374Z" fill="#FAB718"/>
<path d="M42.0311 14.5678L30.021 14.5773L24.1208 11.0374L17.8755 0L42.0311 14.5678Z" fill="#ED6F26"/>
<path d="M24.1529 39.953V32.8604L17.8755 29.1323V50.9999L24.1529 39.953Z" fill="#63B22F"/>
<path d="M30.0046 36.4389L6.368 22.1422L0.100098 11.1016L42.0053 36.4261L30.0046 36.4389Z" fill="#1487C9"/>
<path d="M17.8755 50.9996L24.1529 39.9525L30.0048 36.4383L42.0055 36.4255L17.8755 50.9996Z" fill="#017F36"/>
<path d="M0.113281 39.8917L17.9238 29.1317L11.9332 25.509L6.36826 28.8735L0.113281 39.8917Z" fill="#984995"/>
</g>
</svg>
