<svg width="74" height="35" viewBox="0 0 74 35" fill="none" xmlns="http://www.w3.org/2000/svg">
<g clip-path="url(#clip0_467_2228)">
<path fill-rule="evenodd" clip-rule="evenodd" d="M15.33 0.176309C16.9403 -0.0395889 18.572 0.00499881 20.1942 0.00265209C31.9299 0.000305366 43.6681 0.00499881 55.4039 0.000305365C57.1617 -0.0067348 58.9337 0.105908 60.6391 0.551785C65.5865 1.76973 69.9012 5.22411 72.1585 9.73216C73.7949 12.9214 74.3396 16.6245 73.7973 20.1516C73.2193 24.0847 71.1856 27.7761 68.2053 30.4373C64.999 33.3284 60.6891 34.9782 56.3458 34.9899C43.6681 35.0087 30.9904 34.9923 18.3151 34.9993C16.1435 35.0157 13.9576 34.7412 11.9096 34.0113C7.57829 32.554 3.90104 29.3414 1.865 25.3027C0.180979 22.0032 -0.38036 18.1733 0.254714 14.5359C1.00396 10.171 3.52523 6.14168 7.12636 3.50396C9.51443 1.72984 12.3663 0.570559 15.33 0.176309Z" fill="#219F38"/>
<path fill-rule="evenodd" clip-rule="evenodd" d="M47.4786 19.4335C48.4586 19.1401 49.5075 19.2786 50.516 19.2481C50.8443 20.9119 48.782 21.8435 47.4334 21.2334C46.7032 20.9096 46.6865 19.6846 47.4786 19.4335ZM36.6443 12.6467C38.0381 12.6984 39.5033 12.4684 40.84 12.9565C41.9389 13.3508 42.1268 14.7353 41.7843 15.6998C41.5465 16.4907 40.7473 16.9506 39.9647 17.075C38.8658 17.2487 37.7479 17.1313 36.6419 17.1618C36.6538 15.6576 36.6562 14.151 36.6419 12.6467H36.6443ZM53.6605 14.1674C54.9068 17.197 56.1865 20.2126 57.4566 23.2328C57.195 23.8031 57.0071 24.5681 56.334 24.7887C55.8107 24.9835 55.3017 24.669 54.8616 24.4273C54.883 25.082 54.8807 25.7368 54.8569 26.3891C55.618 26.7975 56.5623 26.8773 57.3734 26.5745C58.2701 26.1334 58.7006 25.1735 59.0527 24.3053C60.2752 20.9283 61.4859 17.5467 62.7251 14.1768C61.983 14.1698 61.2409 14.1698 60.4988 14.1674C59.7829 16.1856 59.2263 18.2624 58.4366 20.2548C57.6065 18.2319 56.8216 16.1903 55.9867 14.1674C55.2113 14.1721 54.4359 14.1721 53.6605 14.1674ZM45.4473 14.7987C45.4544 15.674 45.4544 16.5493 45.4283 17.4247C46.325 16.087 48.1375 15.5379 49.6669 16.0002C50.4684 16.2677 50.4756 17.2064 50.5208 17.8964C49.2934 17.9034 48.0518 17.8471 46.8364 18.0536C45.9135 18.2061 44.9835 18.8491 44.836 19.8136C44.6101 20.933 44.886 22.3246 45.9825 22.9113C47.55 23.7327 49.85 23.2422 50.6183 21.5643C50.6135 22.0923 50.6159 22.618 50.6183 23.146C51.2819 23.1483 51.9455 23.1483 52.6091 23.146C52.583 20.9799 52.6615 18.8116 52.5687 16.6479C52.5354 15.437 51.5769 14.3997 50.3852 14.1768C48.7464 13.8647 46.8982 13.8929 45.4473 14.7987ZM25.0845 11.4969C22.5513 13.3789 20.0039 15.2399 17.4588 17.1032C16.2505 16.3287 15.0208 15.5848 13.8101 14.8151C13.8101 15.7444 13.803 16.6737 13.8173 17.6007C15.0446 18.3258 16.2434 19.0955 17.4469 19.8606C20.3964 17.7227 23.3196 15.5496 26.2547 13.393C25.9027 12.7383 25.5317 12.0929 25.0845 11.4969ZM34.3823 10.5629C34.3894 14.7588 34.3965 18.9524 34.3918 23.146C35.141 23.146 35.8903 23.146 36.6395 23.1507C36.6752 21.8506 36.6514 20.5482 36.6562 19.2481C38.6399 19.2293 40.802 19.4053 42.5526 18.3023C44.3008 17.1923 44.6172 14.7752 43.9322 12.9729C43.397 11.6071 41.9152 10.9196 40.5261 10.7318C38.49 10.4596 36.4302 10.5934 34.3823 10.5629ZM7.84472 17.1219C7.86375 12.1797 12.3235 7.70455 17.3613 7.75852C19.6019 7.72098 21.7569 8.56814 23.536 9.87292C22.9057 10.3329 22.2826 10.8022 21.6499 11.2622C19.5377 9.83772 16.6811 9.57723 14.3691 10.6825C11.5719 11.9427 9.78086 15.0334 10.1162 18.0536C10.3422 20.8345 12.3164 23.4088 14.9994 24.3217C17.0069 25.0609 19.3379 24.8309 21.1765 23.7538C23.4861 22.4279 24.9132 19.8207 24.8657 17.1923C25.5436 16.6643 26.2476 16.1692 26.9326 15.6482C27.2204 17.6312 27.0634 19.7268 26.112 21.5244C24.7277 24.4484 21.7569 26.605 18.4911 26.9359C16.6121 27.1166 14.645 26.8116 13.0038 25.8588C9.8094 24.209 7.702 20.6843 7.84472 17.1219Z" fill="#FEFEFE"/>
</g>
<defs>
<clipPath id="clip0_467_2228">
<rect width="74" height="35" fill="white"/>
</clipPath>
</defs>
</svg>
