<svg width="64" height="64" viewBox="0 0 64 64" fill="none" xmlns="http://www.w3.org/2000/svg">
<rect width="64" height="64" rx="4.27468" fill="black"/>
<path fill-rule="evenodd" clip-rule="evenodd" d="M31.644 26.8785L40.0695 26.8785C41.374 26.8785 42.6477 27.3542 42.5703 28.8846C42.4981 30.3116 41.3122 30.7408 40.0695 30.7408C37.1355 30.7408 34.2015 30.7408 31.2675 30.7408L31.2675 26.8785L31.6388 26.8785L31.644 26.8785ZM19.774 30.7408L11.2969 30.7408L11.2969 37.1365L19.9802 37.1365L19.9802 43.584L31.2727 43.584L31.2727 37.1365L43.0189 37.1365C45.8343 37.1365 49.3561 36.7694 51.6456 34.9598C55.1931 32.1626 55.2499 25.224 51.4393 22.5923C49.1447 21.005 45.7157 20.7051 43.0189 20.7051L19.9802 20.7051L19.9802 30.7408L19.774 30.7408Z" fill="white"/>
</svg>
