<svg width="206" height="20" viewBox="0 0 206 20" fill="none" xmlns="http://www.w3.org/2000/svg">
<g clip-path="url(#clip0_4059_21546)">
<path fill-rule="evenodd" clip-rule="evenodd" d="M23.2453 5.27569C24.2992 5.27569 25.3282 5.68189 25.2657 6.9888C25.2074 8.2074 24.2492 8.57387 23.2453 8.57387C20.8749 8.57387 18.5046 8.57387 16.1342 8.57387L16.1342 5.27569C16.1342 5.27569 23.1281 5.27569 23.2453 5.27569ZM6.8486 8.57386L-1.41378e-06 8.57386L-2.31477e-06 14.0355L7.01523 14.0355L7.01523 19.5413L16.1384 19.5413L16.1384 14.0355L25.6281 14.0355C27.9026 14.0355 30.7479 13.722 32.5975 12.1767C35.4636 9.78806 35.5094 3.86282 32.4309 1.61547C30.5771 0.259995 27.8068 0.0039114 25.6281 0.003911L7.01523 0.00390755L7.01523 8.57386L6.8486 8.57386Z" fill="black"/>
<path fill-rule="evenodd" clip-rule="evenodd" d="M90.3862 0.00391182L80.4674 0.00390998L75.3643 6.39274L70.3361 0.0039081L60.334 0.00390625L70.8443 12.5829L70.8443 19.5457L79.9675 19.5457L79.9675 12.7242L80.0091 12.6756C83.4709 8.45465 86.9244 4.22928 90.382 0.00832704L90.3862 0.00391182Z" fill="black"/>
<path fill-rule="evenodd" clip-rule="evenodd" d="M98.8654 19.5457L107.989 19.5457L107.989 6.30885L116.204 6.30885L116.204 0.00391099L90.6504 0.00390625L90.6504 6.30885L98.8654 6.30885L98.8654 19.5457Z" fill="black"/>
<path fill-rule="evenodd" clip-rule="evenodd" d="M119.174 9.04187C119.174 12.8125 120.432 15.9075 123.677 17.7929C128.384 20.5303 136.524 20.7157 141.736 18.3801C145.702 16.6007 147.435 13.4792 147.435 9.03746L147.435 0.00391149L138.262 0.00390979L138.262 7.98664C138.262 9.38185 137.903 10.7417 136.887 11.691C134.987 13.4659 131.092 13.4174 129.38 11.3643C128.601 10.4327 128.347 9.20524 128.347 7.99105L128.347 0.00390795L119.174 0.00390625L119.174 9.04187Z" fill="black"/>
<path fill-rule="evenodd" clip-rule="evenodd" d="M182.064 0.00390625L182.064 19.5457L205.951 19.5457L205.951 14.4903L191.033 14.4903L191.033 12.1149L202.856 12.1149L202.856 7.21839L191.033 7.21839L191.033 5.00636L205.851 5.00636L205.851 0.00391066L182.064 0.00390625Z" fill="black"/>
<path fill-rule="evenodd" clip-rule="evenodd" d="M167.521 5.20556C168.046 5.20556 168.654 5.28945 169.071 5.66032C169.704 6.22547 169.642 7.46615 168.975 7.9739C168.567 8.28297 168.013 8.36244 167.521 8.36244L160.41 8.36244L160.41 5.20555L167.521 5.20556ZM166.63 13.8417L169.738 19.5418L178.215 19.5418L174.574 12.8262C176.694 12.0447 178.544 10.4111 178.894 7.93858C179.265 5.29828 178.577 3.21429 176.986 1.86323C175.103 0.269333 172.22 3.87921e-06 169.9 3.44922e-06L151.287 0L151.287 19.5462L160.41 19.5462L160.41 13.7534L166.58 13.7534L166.63 13.8417Z" fill="black"/>
<path fill-rule="evenodd" clip-rule="evenodd" d="M54.7233 19.5457L64.2214 19.5457L54.8441 0.00391029L42.0884 0.00390792L33.0527 19.5457L42.7466 19.5457L43.7464 17.1306L53.7277 17.1306L54.7275 19.5457L54.7233 19.5457ZM45.846 11.8058L48.6454 5.09908L51.5073 11.8058L45.846 11.8058Z" fill="black"/>
</g>
<defs>
<clipPath id="clip0_4059_21546">
<rect width="206" height="20" fill="white"/>
</clipPath>
</defs>
</svg>
