<svg width="1920" height="178" viewBox="0 0 1920 178" fill="none" xmlns="http://www.w3.org/2000/svg">
<g opacity="0.05">
<path fill-rule="evenodd" clip-rule="evenodd" d="M215.819 46.866C225.649 46.866 235.247 50.475 234.664 62.0866C234.12 72.9136 225.183 76.1695 215.819 76.1695C193.709 76.1695 171.6 76.1695 149.491 76.1695L149.491 46.866C149.491 46.866 214.726 46.866 215.819 46.866ZM62.8799 76.1695L-1.00001 76.1695L-1.00002 124.695L64.4341 124.695L64.4341 173.613L149.53 173.613L149.53 124.695L238.044 124.695C259.26 124.695 285.799 121.91 303.051 108.18C329.784 86.9573 330.212 34.3129 301.497 14.3457C284.206 2.30264 258.366 0.0273897 238.044 0.0273861L64.4342 0.0273553L64.4341 76.1695L62.8799 76.1695Z" fill="black"/>
<path fill-rule="evenodd" clip-rule="evenodd" d="M842.072 0.0273932L749.555 0.0273769L701.956 56.7907L655.056 0.0273602L561.762 0.0273438L659.796 111.789L659.796 173.652L744.892 173.652L744.892 113.044L745.281 112.613C777.57 75.1103 809.782 37.5689 842.033 0.0666215L842.072 0.0273932Z" fill="black"/>
<path fill-rule="evenodd" clip-rule="evenodd" d="M921.16 173.652L1006.26 173.652L1006.26 56.0454L1082.88 56.0454L1082.88 0.0273858L844.535 0.0273438L844.535 56.0453L921.16 56.0454L921.16 173.652Z" fill="black"/>
<path fill-rule="evenodd" clip-rule="evenodd" d="M1110.59 80.3276C1110.59 113.829 1122.32 141.328 1152.59 158.078C1196.5 182.4 1272.42 184.047 1321.03 163.295C1358.02 147.487 1374.19 119.752 1374.19 80.2885L1374.19 0.0273903L1288.63 0.0273752L1288.63 70.9521C1288.63 83.3483 1285.28 95.4306 1275.8 103.865C1258.08 119.634 1221.75 119.203 1205.78 100.962C1198.52 92.6846 1196.15 81.7791 1196.15 70.9913L1196.15 0.0273589L1110.59 0.0273438L1110.59 80.3276Z" fill="black"/>
<path fill-rule="evenodd" clip-rule="evenodd" d="M1697.2 0.0273438L1697.2 173.652L1920 173.652L1920 128.735L1780.85 128.735L1780.85 107.631L1891.13 107.631L1891.13 64.1264L1780.85 64.1264L1780.85 44.473L1919.07 44.473L1919.07 0.0273829L1697.2 0.0273438Z" fill="black"/>
<path fill-rule="evenodd" clip-rule="evenodd" d="M1561.55 46.2502C1566.44 46.2502 1572.12 46.9955 1576 50.2907C1581.91 55.3119 1581.33 66.3351 1575.11 70.8463C1571.3 73.5923 1566.13 74.2984 1561.55 74.2984L1495.22 74.2984L1495.22 46.2502L1561.55 46.2502ZM1553.23 122.981L1582.22 173.624L1661.29 173.624L1627.33 113.958C1647.11 107.015 1664.36 92.5004 1667.63 70.5325C1671.08 47.074 1664.67 28.5582 1649.83 16.5544C1632.27 2.39297 1605.38 3.44659e-05 1583.74 3.06455e-05L1410.12 0L1410.12 173.664L1495.22 173.664L1495.22 122.196L1552.77 122.196L1553.23 122.981Z" fill="black"/>
<path fill-rule="evenodd" clip-rule="evenodd" d="M509.44 173.652L598.032 173.652L510.566 0.0273796L391.588 0.0273586L307.309 173.652L397.727 173.652L407.053 152.194L500.153 152.194L509.478 173.652L509.44 173.652ZM426.637 104.885L452.748 45.2968L479.442 104.885L426.637 104.885Z" fill="black"/>
</g>
</svg>
