<?xml version="1.0" encoding="UTF-8" standalone="no"?>
<svg
   xmlns="http://www.w3.org/2000/svg"
   viewBox="0 0 636.03998 363.28"
   version="1.1"><g
     transform="matrix(1.3333333,0,0,-1.3333333,0,363.28)">
	 <g transform="scale(0.1)">
		<path
         style="fill:#2a303b;fill-opacity:1;fill-rule:nonzero;stroke:none"
         d="m 3869.28,1090.85 h 53.21 v -81.72 h 25.99 l 51.95,81.72 h 59.08 l -67.87,-101.819 v -0.84 l 76.25,-111.043 h -61.59 l -56.15,86.743 h -27.66 v -86.743 h -53.21 z m -98.04,-80.45 c -0.42,28.49 -18.84,45.25 -42.73,45.25 -27.24,0 -46.52,-18.03 -51.54,-45.25 z m -41.47,85.47 c 61.17,0 94.69,-44.83 94.69,-101.39 0,-6.718 -0.84,-13.832 -1.67,-20.55 h -147.08 c 3.35,-37.282 31.85,-56.559 64.11,-56.559 21.78,0 43.99,9.649 61.17,23.481 l 20.96,-38.153 c -21.79,-19.258 -55.31,-30.578 -85.9,-30.578 -70.81,0 -115.23,51.129 -115.23,111.867 0,65.782 44.84,111.882 108.95,111.882 z M 3376.88,921.98 c 26.39,3.77 44.83,25.981 44.83,101.82 v 67.05 h 155.87 V 877.148 h -53.21 v 170.532 h -51.96 v -23.88 c 0,-93.011 -24.71,-146.652 -95.53,-148.749 z m -78.38,88.42 c -0.42,28.49 -18.86,45.25 -42.75,45.25 -27.23,0 -46.5,-18.03 -51.53,-45.25 z m -41.49,85.47 c 61.18,0 94.7,-44.83 94.7,-101.39 0,-6.718 -0.84,-13.832 -1.68,-20.55 h -147.07 c 3.35,-37.282 31.85,-56.559 64.11,-56.559 21.79,0 44,9.649 61.17,23.481 l 20.95,-38.153 c -21.79,-19.258 -55.3,-30.578 -85.9,-30.578 -70.81,0 -115.22,51.129 -115.22,111.867 0,65.782 44.83,111.882 108.94,111.882 z m -437.94,-5.02 h 50.71 V 922.41 h 66.62 v 168.44 h 50.7 V 922.41 h 66.62 v 168.44 h 50.71 V 877.148 h -285.36 z m -160,-173.479 c 34.78,0 63.69,26.82 63.69,66.617 0,39.402 -28.91,66.622 -63.69,66.622 -34.78,0 -63.27,-27.22 -63.27,-66.622 0,-39.797 28.49,-66.617 63.27,-66.617 z m -0.42,178.499 c 65.37,0 117.74,-46.51 117.74,-111.882 0,-65.777 -52.37,-111.867 -117.32,-111.867 -64.95,0 -117.32,46.09 -117.32,111.867 0,65.372 52.37,111.882 116.9,111.882 z m -347.43,78.77 h 54.06 v -121.08 h 38.54 l 69.97,121.08 h 58.66 l -84.21,-141.63 v -0.84 l 89.24,-155.022 h -61.17 l -72.49,129.892 h -38.54 V 877.148 h -54.06 v 297.492" /><path
         style="fill:#f57d14;fill-opacity:1;fill-rule:nonzero;stroke:none"
         d="m 1312.28,675.41 c -380.128,0 -688.284,308.199 -688.284,688.33 0,380.12 308.156,688.28 688.284,688.28 380.12,0 688.29,-308.16 688.29,-688.28 0,-129.17 -35.56,-250.04 -97.45,-353.31 -2.01,-3.37 -7.11,-2.2 -7.65,1.69 -23.61,169.15 -126.95,262.35 -277.36,289.53 -13.05,2.36 -15.48,10.4 1.78,11.89 45.88,3.97 111.26,3.3 144.51,-2.7 2,17.35 2.88,35.02 2.88,52.9 0,251.28 -203.71,454.99 -455,454.99 -251.29,0 -454.991,-203.71 -454.991,-454.99 0,-251.29 203.701,-455.002 454.991,-455.002 7.17,0 14.29,-0.09 21.37,0.242 v 0 c -7.59,44.192 -9.93,89.11 -8.55,123.04 1.12,27.76 6.75,31.57 19.27,9.97 62.97,-108.51 153.32,-207.349 328.96,-246.049 143.6,-31.64 287.59,-69.07 443.27,-265.632 13.84,-17.469 -7.28,-34.938 -23.15,-20.868 -158.41,140.348 -301.54,185.59 -433.45,185.59 -146.83,0 -246.87,-19.621 -347.72,-19.621 z m 349.38,289.41 c -13.83,0 -25.37,-4.82 -32.47,-13.582 -18.17,-22.418 -10,-61.867 17.84,-86.199 12.15,-10.609 29.66,-16.961 46.84,-16.961 17.5,0 32.09,6.57 41.1,18.461 16.2,21.723 6.89,52.492 -23.73,78.383 -15.16,12.828 -32.76,19.898 -49.58,19.898 z m 152.62,112.63 c -13.19,4.99 -23.66,1.01 -28.65,-8.12 -7.57,-13.82 -1.98,-41.14 13.28,-64.95 15.46,-24.118 28.57,-36.36 39.01,-36.36 9.57,0 19.1,12.492 14.6,42.66 -2.68,18.02 -12.7,57.11 -38.24,66.77 z m 802.34,357.58 -55.39,66.63 c -5.81,6.98 -0.84,17.58 8.25,17.58 h 115.9 c 5.52,16.43 8.64,33.98 8.64,52.21 0,83.47 -62.13,155.44 -147.41,155.44 -85.27,0 -147.39,-71.97 -147.39,-155.44 0,-83.47 62.12,-154.42 147.39,-154.42 25.84,0 49.51,6.6 70.01,18 z m 250.68,-112.61 c 6.01,-6.66 1.08,-17.38 -7.99,-17.38 h -126.49 c -5.14,0 -10.02,2.29 -13.32,6.25 l -21.43,25.78 c -43.66,-28.31 -95.65,-44.83 -151.46,-44.83 -153.95,0 -279.21,125.25 -279.21,279.21 0,153.96 125.26,279.21 279.21,279.21 153.97,0 279.22,-125.25 279.22,-279.21 0,-55.5 -16.35,-107.22 -44.37,-150.74 z m 1168.38,515.4 h -103.23 c -7.57,0 -13.73,-6.15 -13.73,-13.74 v -505.26 c 0,-7.58 6.16,-13.73 13.73,-13.73 h 103.23 c 7.57,0 13.73,6.15 13.73,13.73 v 505.26 c 0,7.59 -6.16,13.74 -13.73,13.74 z m -173.7,0 H 3746.5 c -6.05,0 -11.37,-3.92 -13.14,-9.65 l -91.38,-298.59 -100.44,298.92 c -1.87,5.56 -7.11,9.32 -13.03,9.32 h -80.59 c -5.91,0 -11.16,-3.76 -13.02,-9.32 l -100.44,-298.92 -91.39,298.59 c -1.76,5.73 -7.09,9.65 -13.14,9.65 h -115.48 c -4.42,0 -8.56,-2.11 -11.14,-5.66 -2.58,-3.55 -3.28,-8.12 -1.88,-12.28 l 169.62,-505.53 c 1.87,-5.56 7.12,-9.31 13.02,-9.31 h 91.66 c 5.91,0 11.16,3.75 13.03,9.3 l 99.46,295.35 99.45,-295.35 c 1.87,-5.55 7.12,-9.3 13.03,-9.3 h 91.66 c 5.9,0 11.16,3.75 13.02,9.31 l 169.63,505.53 c 1.4,4.16 0.7,8.73 -1.88,12.28 -2.59,3.55 -6.73,5.66 -11.15,5.66 z m -804.27,-13.74 v -505.26 c 0,-7.58 -6.15,-13.73 -13.73,-13.73 h -103.23 c -7.57,0 -13.73,6.15 -13.73,13.73 v 505.26 c 0,7.59 6.16,13.74 13.73,13.74 h 103.23 c 7.58,0 13.73,-6.15 13.73,-13.74" /></g></g></svg>