<svg width="159" height="35" viewBox="0 0 159 35" fill="none" xmlns="http://www.w3.org/2000/svg">
<path d="M77.96 13.53H50.59V27.73H59.28V19.73H62.93L67.82 27.73H77.68L71.89 19.04C74.65 18.07 76.85 16.08 77.96 13.52V13.53Z" fill="white"/>
<path d="M75.14 3.19C73.42 1.6 71.21 0.709991 68.73 0.709991H50.12C50.19 1.46999 50.26 2.16001 50.4 2.85001C50.47 2.99001 50.47 3.12999 50.54 3.32999C50.54 3.39999 50.54 3.47001 50.61 3.54001C52.13 8.43001 56.75 12.02 62.12 12.02H78.11C78.18 11.47 78.25 10.92 78.25 10.37C78.25 7.47 77.08 4.92001 75.15 3.20001L75.14 3.19Z" fill="white"/>
<path d="M21.43 4.22L17.85 16.63H17.23L13.65 4.22C13.1 2.15 11.17 0.700012 8.95998 0.700012H0.339966V27.79H8.95998V11.73H9.57997L14.47 27.72H20.61L25.5 11.73H26.19V27.72H34.81V0.700012H26.19C23.98 0.700012 22.05 2.15 21.43 4.22Z" fill="white"/>
<path d="M47.0799 0.700012H38.46V27.79H47.0799V0.700012Z" fill="white"/>
<path d="M93.94 0.98999H103.78C109.75 0.98999 113.85 4.05 113.85 9.28V9.35999C113.85 15.05 108.93 18 103.28 18H95.96V28.11H93.95V1L93.94 0.98999ZM103.39 16.13C108.43 16.13 111.83 13.5 111.83 9.47V9.39001C111.83 5.09001 108.5 2.85001 103.62 2.85001H95.95V16.13H103.39Z" fill="white"/>
<path d="M117.38 22.37V22.29C117.38 18.18 120.9 15.86 126.02 15.86C128.77 15.86 130.67 16.21 132.57 16.71V15.86C132.57 11.87 130.13 9.82001 126.06 9.82001C123.66 9.82001 121.68 10.48 119.86 11.41L119.16 9.75C121.33 8.74 123.46 8.04001 126.17 8.04001C128.88 8.04001 130.97 8.77999 132.4 10.21C133.72 11.53 134.41 13.35 134.41 15.79V28.11H132.55V24.82C131.19 26.72 128.75 28.58 125 28.58C121.25 28.58 117.37 26.49 117.37 22.38L117.38 22.37ZM132.6 20.71V18.46C130.94 18.03 128.73 17.57 125.9 17.57C121.72 17.57 119.39 19.43 119.39 22.18V22.26C119.39 25.13 122.1 26.79 125.12 26.79C129.15 26.79 132.59 24.31 132.59 20.71H132.6Z" fill="white"/>
<path d="M155.92 8.35001H158.01L149.45 28.8C147.71 32.94 145.69 34.42 142.87 34.42C141.36 34.42 140.27 34.15 138.96 33.57L139.62 31.9C140.67 32.4 141.52 32.64 142.99 32.64C145.04 32.64 146.4 31.44 147.87 27.99L138.38 8.35001H140.59L148.8 26.01L155.93 8.35001H155.92Z" fill="white"/>
</svg>
