<svg id="Layer_1" data-name="Layer 1" xmlns="http://www.w3.org/2000/svg" viewBox="0 0 313 150"><defs><style>.cls-1{fill:#fff;}</style></defs><path class="cls-1" d="M156.81,82.82h8.27c15.71,0,24.14-6.28,24.14-18.77,0-12.11-7.2-18.17-24.14-18.17H147.23V99.53h9.58Zm0-28.12h9.12c9.34,0,13.33,2.53,13.33,9.12,0,7.28-4.6,10.19-13.49,10.19h-9Z"/><path class="cls-1" d="M203.62,100.14c6.14,0,10.81-3.07,12.65-7.51v6.9h8.43V74.24c0-10-5.52-13.8-16.71-13.8-6.59,0-11.19,1.54-13.71,3.45V75.08c2.6-4.06,6.66-6.82,13.71-6.82,5.14,0,7.74,1.69,7.74,7.13v1.68h-8.66c-9.42,0-15.78,2.45-15.78,11.19C191.29,95.77,195.88,100.14,203.62,100.14Zm4.53-17.24h7.58V86c-.38,2.6-3.22,6-9.27,6-4,0-6.13-1.84-6.13-4.75C200.33,83.89,202.86,82.9,208.15,82.9Z"/><path class="cls-1" d="M239,106.73a6.76,6.76,0,0,1-4.6-1.92v8.36c1.15,1,3.75,1.68,6.13,1.68,5.06,0,8.5-2.07,11.88-11.26l15.32-42.38h-9.5l-8.58,26.28-10.5-26.28h-10l16.17,38.47C243.85,104.89,241.78,106.73,239,106.73Z"/><path class="cls-1" d="M59.51,63.93V75.7l15.6,9.78L112.46,58a41,41,0,0,0-4.92-8.15L75.11,73.71Z"/><path class="cls-1" d="M75.11,115.85a41,41,0,0,0,41-41,41.43,41.43,0,0,0-.66-7.35L106.62,74c0,.28,0,.57,0,.85a31.55,31.55,0,1,1-13.75-26l8-5.87a41,41,0,1,0-25.74,72.87Z"/></svg>