<svg width="586" height="88" viewBox="0 0 586 88" fill="none" xmlns="http://www.w3.org/2000/svg">
<path d="M570.22 0.75H15.5C6.93959 0.75 0 7.68959 0 16.25V72.02C0 80.5804 6.93959 87.52 15.5 87.52H570.22C578.78 87.52 585.72 80.5804 585.72 72.02V16.25C585.72 7.68959 578.78 0.75 570.22 0.75Z" fill="#008452"/>
<path d="M290.96 39.78H263.59V53.98H272.28V45.98H275.93L280.82 53.98H290.68L284.89 45.29C287.65 44.32 289.85 42.33 290.96 39.77V39.78Z" fill="white"/>
<path d="M288.14 29.44C286.42 27.85 284.21 26.96 281.73 26.96H263.12C263.19 27.72 263.26 28.41 263.4 29.1C263.47 29.24 263.47 29.38 263.54 29.58C263.54 29.65 263.54 29.72 263.61 29.79C265.13 34.68 269.75 38.27 275.12 38.27H291.11C291.18 37.72 291.25 37.17 291.25 36.62C291.25 33.72 290.08 31.17 288.15 29.45L288.14 29.44Z" fill="white"/>
<path d="M234.43 30.47L230.85 42.88H230.23L226.65 30.47C226.1 28.4 224.17 26.95 221.96 26.95H213.34V54.04H221.96V37.98H222.58L227.47 53.97H233.61L238.5 37.98H239.19V53.97H247.81V26.95H239.19C236.98 26.95 235.05 28.4 234.43 30.47Z" fill="white"/>
<path d="M260.08 26.96H251.46V54.05H260.08V26.96Z" fill="white"/>
<path d="M306.94 27.25H316.78C322.75 27.25 326.85 30.31 326.85 35.54V35.62C326.85 41.31 321.93 44.26 316.28 44.26H308.96V54.37H306.95V27.26L306.94 27.25ZM316.39 42.39C321.43 42.39 324.83 39.76 324.83 35.73V35.65C324.83 31.35 321.5 29.11 316.62 29.11H308.95V42.39H316.39Z" fill="white"/>
<path d="M330.38 48.63V48.55C330.38 44.44 333.9 42.12 339.02 42.12C341.77 42.12 343.67 42.47 345.57 42.97V42.12C345.57 38.13 343.13 36.08 339.06 36.08C336.66 36.08 334.68 36.74 332.86 37.67L332.16 36.01C334.33 35 336.46 34.3 339.17 34.3C341.88 34.3 343.97 35.04 345.4 36.47C346.72 37.79 347.41 39.61 347.41 42.05V54.37H345.55V51.08C344.19 52.98 341.75 54.84 338 54.84C334.25 54.84 330.37 52.75 330.37 48.64L330.38 48.63ZM345.6 46.97V44.72C343.94 44.29 341.73 43.83 338.9 43.83C334.72 43.83 332.39 45.69 332.39 48.44V48.52C332.39 51.39 335.1 53.05 338.12 53.05C342.15 53.05 345.59 50.57 345.59 46.97H345.6Z" fill="white"/>
<path d="M368.92 34.61H371.01L362.45 55.06C360.71 59.2 358.69 60.68 355.87 60.68C354.36 60.68 353.27 60.41 351.96 59.83L352.62 58.16C353.67 58.66 354.52 58.9 355.99 58.9C358.04 58.9 359.4 57.7 360.87 54.25L351.38 34.61H353.59L361.8 52.27L368.93 34.61H368.92Z" fill="white"/>
</svg>
