<svg width="55" height="30" viewBox="0 0 55 30" fill="none" xmlns="http://www.w3.org/2000/svg">
<mask id="mask0_467_1905" style="mask-type:luminance" maskUnits="userSpaceOnUse" x="0" y="0" width="55" height="30">
<path d="M54.5 0H0.5V30H54.5V0Z" fill="white"/>
</mask>
<g mask="url(#mask0_467_1905)">
<path d="M54.4998 11.1338V18.6132H51.8332V13.368H49.2652V18.6132H46.5986V11.1338H54.4998Z" fill="white"/>
<path d="M45.3338 15.2999C45.3338 17.4779 43.4998 18.9148 41.0305 18.9148C38.4757 18.9148 36.6133 17.3935 36.6133 13.9455C36.6133 10.9871 38.5232 8.54836 41.351 8.50146C42.5895 8.50146 45.2504 8.44336 45.2504 8.44336L44.0517 10.6194C44.0517 10.6194 41.9313 10.6232 41.6506 10.6232C40.4311 10.6232 39.3216 11.5312 39.1661 12.773C39.8147 12.1727 40.6758 11.8238 41.7208 11.8238C43.9797 11.8238 45.3338 13.1914 45.3338 15.2999ZM42.597 15.2999C42.597 14.3225 41.9617 13.7504 41.0437 13.7504C40.0973 13.7504 39.4639 14.3357 39.4639 15.313C39.4639 16.2341 40.0992 16.9038 41.0437 16.9038C42.0319 16.9057 42.597 16.1797 42.597 15.2999Z" fill="white"/>
<path d="M34.4988 16.3524C34.4988 16.3524 33.854 16.7107 32.8924 16.7801C31.7848 16.8101 30.8005 16.1366 30.8005 14.936C30.8005 13.7654 31.671 13.0939 32.864 13.0939C33.596 13.0939 34.5652 13.5853 34.5652 13.5853C34.5652 13.5853 35.2745 12.3266 35.6406 11.7C34.9692 11.2067 34.0721 10.9365 33.0309 10.9365C30.4022 10.9365 28.3652 12.5949 28.3652 14.9229C28.3652 17.2809 30.2789 18.8999 33.0309 18.8511C33.8009 18.823 34.8611 18.5622 35.5078 18.1608L34.4988 16.3524Z" fill="white"/>
<path d="M0.5 6.53027L4.187 13.0248V16.9849L0.507601 23.4662L0.5 6.53027Z" fill="#5B57A2"/>
<path d="M14.6484 10.661L18.1002 8.57504L25.1651 8.56934L14.6484 14.9231V10.661Z" fill="#D90751"/>
<path d="M14.6298 6.4926L14.6487 15.09L10.9561 12.852V0L14.6298 6.4926Z" fill="#FAB718"/>
<path d="M25.1653 8.5693L18.1005 8.5749L14.6298 6.4926L10.9561 0L25.1653 8.5693Z" fill="#ED6F26"/>
<path d="M14.6487 23.5018V19.3297L10.9561 17.1367V30L14.6487 23.5018Z" fill="#63B22F"/>
<path d="M18.0909 21.4346L4.187 13.0248L0.5 6.53027L25.1501 21.4271L18.0909 21.4346Z" fill="#1487C9"/>
<path d="M10.9561 29.9998L14.6487 23.5015L18.091 21.4343L25.1502 21.4268L10.9561 29.9998Z" fill="#017F36"/>
<path d="M0.507812 23.4658L10.9846 17.1364L7.46071 15.0054L4.18721 16.9845L0.507812 23.4658Z" fill="#984995"/>
</g>
</svg>
